HIERARCHY
ROOT Hips
{
	OFFSET 0.00000 0.00000 0.00000
	CHANNELS 6 Xposition Yposition Zposition Zrotation Yrotation Xrotation 
	JOINT LHipJoint
	{
		OFFSET 0 0 0
		CHANNELS 3 Zrotation Yrotation Xrotation
		JOINT LeftHip
		{
			OFFSET 1.56857 -1.73443 1.15205
			CHANNELS 3 Zrotation Yrotation Xrotation
			JOINT LeftKnee
			{
				OFFSET 2.39362 -6.57643 0.00000
				CHANNELS 3 Zrotation Yrotation Xrotation
				JOINT LeftAnkle
				{
					OFFSET 2.50952 -6.89485 0.00000
					CHANNELS 3 Zrotation Yrotation Xrotation
					JOINT LeftToe
					{
						OFFSET 0.17171 -0.47178 1.88682
						CHANNELS 3 Zrotation Yrotation Xrotation
						End Site
						{
							OFFSET 0.00000 -0.00000 0.98146
						}
					}
				}
			}
		}
	}
	JOINT RHipJoint
	{
		OFFSET 0 0 0
		CHANNELS 3 Zrotation Yrotation Xrotation
		JOINT RightHip
		{
			OFFSET -1.28153 -1.73443 1.15205
			CHANNELS 3 Zrotation Yrotation Xrotation
			JOINT RightKnee
			{
				OFFSET -2.26861 -6.23296 0.00000
				CHANNELS 3 Zrotation Yrotation Xrotation
				JOINT RightAnkle
				{
					OFFSET -2.54143 -6.98254 0.00000
					CHANNELS 3 Zrotation Yrotation Xrotation
					JOINT RightToe
					{
						OFFSET -0.23309 -0.64041 1.93119
						CHANNELS 3 Zrotation Yrotation Xrotation
						End Site
						{
							OFFSET -0.00000 -0.00000 1.02013
						}
					}
				}
			}
		}
	}
	JOINT lowerback
	{
		OFFSET 0 0 0
		CHANNELS 3 Zrotation Yrotation Xrotation
		JOINT Chest
		{
			OFFSET -0.07096 2.10460 -0.27878
			CHANNELS 3 Zrotation Yrotation Xrotation
			JOINT Chest2
			{
				OFFSET -0.00826 2.13662 -0.08279
				CHANNELS 3 Zrotation Yrotation Xrotation
				JOINT lowerneck
				{
					OFFSET 0 0 0
					CHANNELS 3 Zrotation Yrotation Xrotation
					JOINT Neck
					{
						OFFSET 0.03239 1.77799 0.24435
						CHANNELS 3 Zrotation Yrotation Xrotation
						JOINT Head
						{
							OFFSET 0.01026 1.74194 -0.49664
							CHANNELS 3 Zrotation Yrotation Xrotation
							End Site
							{
								OFFSET 0.00170 1.83057 -0.19653
							}
						}
					}
				}
				JOINT LeftCollar
				{
					OFFSET 0 0 0
					CHANNELS 3 Zrotation Yrotation Xrotation
					JOINT LeftShoulder
					{
						OFFSET 3.19178 1.35907 -0.31412
CHANNELS 3 Zrotation Xrotation Yrotation
						JOINT LeftElbow
						{
OFFSET 0 -4.852470 -0.000000
CHANNELS 3 Zrotation Xrotation Yrotation
							JOINT LeftWrist
							{
OFFSET 0 -3.555840 0.000000
CHANNELS 3 Zrotation Xrotation Yrotation
								JOINT lhand
								{
									OFFSET 0 0 0
CHANNELS 3 Zrotation Xrotation Yrotation
									JOINT LFingers
									{
OFFSET 0 -0.693200 0.000000
CHANNELS 3 Zrotation Xrotation Yrotation
										End Site
										{
OFFSET 0 -0.558880 0.000000
										}
									}
								}
								JOINT LThumb
								{
OFFSET 0 0.000000 0.000000
CHANNELS 3 Zrotation Xrotation Yrotation
									End Site
									{
OFFSET 0 -0.567410 0.567410
									}
								}
							}
						}
					}
				}
				JOINT RightCollar
				{
					OFFSET 0 0 0
					CHANNELS 3 Zrotation Yrotation Xrotation
					JOINT RightShoulder
					{
						OFFSET -3.28999 1.24191 -0.26899
CHANNELS 3 Zrotation Xrotation Yrotation
						JOINT RightElbow
						{
OFFSET 0 -4.644620 0.000000
CHANNELS 3 Zrotation Xrotation Yrotation
							JOINT RightWrist
							{
OFFSET 0 -3.407030 0.000000
CHANNELS 3 Zrotation Xrotation Yrotation
								JOINT rhand
								{
									OFFSET 0 0 0
CHANNELS 3 Zrotation Xrotation Yrotation
									JOINT RFingers
									{
OFFSET 0 -0.619580 0.000000
CHANNELS 3 Zrotation Xrotation Yrotation
										End Site
										{
OFFSET 0 -0.499520 0.000000
										}
									}
								}
								JOINT RThumb
								{
OFFSET 0 0.000000 0.000000
CHANNELS 3 Zrotation Xrotation Yrotation
									End Site
									{
OFFSET 0 -0.507150 0.507150
									}
								}
							}
						}
					}
				}
			}
		}
	}
}
MOTION
Frames: 11
Frame Time: 0.008333333333333333
47.786605 16.643693 -5.551740 543.970995 5.304595 539.201205 0.000000 0.000000 0.000000 -21.372411 14.011783 -17.451821 0.083738 1.864390 5.131258 -0.622572 14.087412 -8.243802 0.633238 5.091356 14.169253 0.000000 0.000000 0.000000 23.020794 -7.308569 23.412003 -0.751684 -5.537224 15.447543 -0.467832 4.324931 -12.163849 -0.178295 -2.717964 7.494654 1.387409 5.174062 2.663641 -1.408449 6.938779 -1.430401 -2.537800 3.431392 -2.618586 13.583865 12.292352 -15.498728 -6.132536 14.782207 18.098884 -2.202360 7.157724 9.767790 0.000000 0.000000 0.000000 9.447844 19.134914 -24.801008 16.751720 -26.529196 3.975783 8.552382 7.253451 19.828642 0.000000 0.000000 0.000000 -7.125000 0.000000 0.000000 -12.740615 10.326029 -10.520895 0.000000 0.000000 0.000000 -9.037822 -5.085502 46.202174 -32.866074 -43.226849 -13.330268 -10.287002 0.260127 31.344677 0.000000 0.000000 0.000000 7.125000 0.000000 0.000000 24.675672 60.008653 -9.377683
47.746602 16.749470 -6.101883 543.444472 3.967589 539.187394 0.000000 0.000000 0.000000 -22.170723 13.297770 -13.465500 0.025628 1.018927 2.800964 -0.514501 13.330142 -9.642666 1.202524 6.951913 19.575062 0.000000 0.000000 0.000000 21.478030 -7.942806 23.018220 -0.980230 -6.301694 17.662417 -0.140758 2.950825 -6.648509 -0.570611 -4.828658 13.422196 0.896816 5.153120 2.021563 -1.796852 6.901045 -1.764422 -2.620195 3.425252 -2.615117 14.544233 12.899723 -15.203462 -7.081934 15.672352 18.917715 -2.507534 7.516431 10.272119 0.000000 0.000000 0.000000 10.450088 17.951048 -26.436851 16.973283 -26.822531 4.075266 11.138533 3.954623 21.931736 0.000000 0.000000 0.000000 -7.125000 0.000000 0.000000 -11.122011 8.006291 -9.652334 0.000000 0.000000 0.000000 -7.979403 -1.761324 46.801030 -32.762451 -43.146620 -13.259335 -8.318907 -0.300136 31.418197 0.000000 0.000000 0.000000 7.125000 0.000000 0.000000 26.753656 59.619235 -9.982778
47.685053 16.822214 -6.603119 544.112856 2.864168 539.208032 0.000000 0.000000 0.000000 -21.491106 13.522970 -11.152754 0.016779 0.836389 2.298718 -0.363814 12.089727 -10.629840 1.797396 8.430256 24.029070 0.000000 0.000000 0.000000 21.237290 -8.211596 21.899410 -1.338592 -7.324430 20.680699 0.003998 1.622461 -0.328811 -0.113231 -2.166911 5.967123 1.392309 5.106927 1.569953 -1.539291 6.856369 -1.988459 -2.594336 3.394267 -2.569911 15.399677 13.662561 -14.838376 -8.124297 16.857478 19.457853 -2.778530 7.993850 10.725552 0.000000 0.000000 0.000000 10.800528 16.729873 -28.261474 18.105735 -28.291782 4.599540 11.440159 -1.073638 22.573727 0.000000 0.000000 0.000000 -7.125000 0.000000 0.000000 -10.949122 7.338117 -9.643433 0.000000 0.000000 0.000000 -7.476469 1.026714 47.428561 -32.281377 -42.770366 -12.931476 -7.025382 -1.096559 31.210765 0.000000 0.000000 0.000000 7.125000 0.000000 0.000000 27.881004 59.143031 -10.122099
47.640616 16.877494 -7.076733 543.909152 1.672529 538.767873 0.000000 0.000000 0.000000 -21.545132 15.352005 -9.707048 0.034758 1.202566 3.306353 -0.064894 8.544314 -10.840624 2.237541 9.343625 26.876719 0.000000 0.000000 0.000000 19.592431 -8.348534 20.444994 -1.935085 -8.726855 24.946323 -0.080112 -0.120978 5.219105 -0.774582 -5.617171 15.678262 0.594440 4.943106 1.676188 -1.375929 6.620349 -2.080975 -2.004270 3.290797 -2.844794 16.199486 14.315401 -14.132836 -9.120846 17.935511 19.539899 -3.064859 8.441593 10.952815 0.000000 0.000000 0.000000 11.087644 15.249028 -29.333441 19.391270 -29.901406 5.224725 14.035638 -2.696462 21.291167 0.000000 0.000000 0.000000 -7.125000 0.000000 0.000000 -9.276013 8.326247 -7.942218 0.000000 0.000000 0.000000 -7.287017 3.723766 48.118229 -31.650766 -42.266813 -12.505353 -7.038208 -0.726338 30.810351 0.000000 0.000000 0.000000 7.125000 0.000000 0.000000 27.526627 58.795369 -9.748030
47.579861 16.925180 -7.517143 542.232177 -0.251944 537.935122 0.000000 0.000000 0.000000 -23.561845 14.453358 -6.557836 0.027227 1.063440 2.923384 0.000015 8.133644 -11.594024 2.106767 9.084840 26.061089 0.000000 0.000000 0.000000 15.828356 -8.890397 18.459719 -2.750318 -10.277345 29.881600 -0.470453 -1.538770 12.493717 -1.164101 -6.849287 19.269689 -1.536742 4.489454 2.086947 -1.628148 5.841576 -1.830008 -1.088184 2.905956 -3.030292 17.109517 15.032527 -13.372303 -9.993133 19.064549 19.418648 -3.308715 8.943737 11.124312 0.000000 0.000000 0.000000 11.206001 13.738658 -30.433402 20.959373 -31.780296 6.028776 12.837222 -3.911059 21.755686 0.000000 0.000000 0.000000 -7.125000 0.000000 0.000000 -10.049392 7.997851 -8.691673 0.000000 0.000000 0.000000 -7.139312 5.924558 48.418652 -30.765726 -41.540335 -11.914342 -6.626829 -0.872835 30.268393 0.000000 0.000000 0.000000 7.125000 0.000000 0.000000 27.487523 58.229153 -9.352297
47.503897 16.933785 -7.905417 540.245558 -1.195653 537.002280 0.000000 0.000000 0.000000 -25.778131 15.028438 -3.912267 0.023980 0.995590 2.736778 0.116554 7.044376 -12.411746 2.183578 9.237206 26.541148 0.000000 0.000000 0.000000 11.955151 -8.056048 15.921815 -3.861851 -11.971874 35.635818 -1.100642 -4.484504 18.840477 -1.701322 -8.211016 23.358534 -3.601267 4.530005 2.936737 -1.968228 5.756045 -1.432124 -0.357504 2.886949 -3.271938 16.998883 15.331292 -12.995752 -10.409382 19.657894 19.141806 -3.344005 9.176322 11.075863 0.000000 0.000000 0.000000 11.751789 11.534011 -33.133610 22.387185 -33.411738 6.797922 13.136229 -5.807251 21.109425 0.000000 0.000000 0.000000 -7.125000 0.000000 0.000000 -9.839806 8.611097 -8.383813 0.000000 0.000000 0.000000 -6.581868 7.622818 46.522988 -29.273986 -40.262489 -10.937468 -6.228006 -0.550936 30.016909 0.000000 0.000000 0.000000 7.125000 0.000000 0.000000 27.679178 57.922185 -9.215866
47.419475 16.917503 -8.274537 538.237654 -2.860522 536.464007 0.000000 0.000000 0.000000 -28.194373 15.019957 -1.285193 0.015055 0.791877 2.176379 0.243971 5.600229 -13.059211 2.436539 9.721456 28.079485 0.000000 0.000000 0.000000 7.937649 -8.007223 12.470726 -5.107394 -13.502677 41.282487 -1.120103 -4.741972 18.987665 -1.409425 -7.508377 21.230751 -5.756303 4.208588 3.319072 -2.290070 5.165705 -1.056265 0.518342 2.606013 -3.253083 17.781360 15.894420 -12.327796 -11.151489 20.585666 19.374484 -3.549350 9.580393 11.365449 0.000000 0.000000 0.000000 12.030135 9.034518 -35.210184 23.415406 -34.539820 7.372491 14.167704 -7.081507 21.294137 0.000000 0.000000 0.000000 -7.125000 0.000000 0.000000 -9.192272 8.308064 -7.872314 0.000000 0.000000 0.000000 -6.066814 8.996782 44.173528 -27.458547 -38.612417 -9.784191 -6.632343 0.282505 30.073419 0.000000 0.000000 0.000000 7.125000 0.000000 0.000000 27.323673 58.058886 -9.177216
47.320944 16.904677 -8.618900 536.096287 -4.692935 536.177813 0.000000 0.000000 0.000000 -31.223936 13.710769 1.883336 0.002359 0.309883 0.851536 0.296661 5.612960 -13.882558 2.352230 9.564137 27.576566 0.000000 0.000000 0.000000 4.116988 -7.724002 8.390429 -6.426136 -14.828739 46.668437 -0.612254 0.116422 14.829403 -0.980421 -6.299576 17.657274 -8.065379 3.848351 3.537298 -2.577393 4.510329 -0.711768 1.534002 2.282927 -3.149897 18.156089 16.226033 -11.610054 -11.502447 21.182008 19.487418 -3.639555 9.858080 11.462138 0.000000 0.000000 0.000000 12.549990 6.223141 -37.946154 24.291061 -35.470622 7.874855 13.653414 -6.982964 21.282285 0.000000 0.000000 0.000000 -7.125000 0.000000 0.000000 -9.517745 8.379651 -8.145365 0.000000 0.000000 0.000000 -5.490105 10.102244 40.296494 -25.300319 -36.509259 -8.468030 -6.822949 1.692686 29.602364 0.000000 0.000000 0.000000 7.125000 0.000000 0.000000 26.759282 57.684231 -8.722814
47.231334 16.910415 -8.920764 535.059748 -7.039786 536.179766 0.000000 0.000000 0.000000 -32.378477 14.139571 3.319657 0.004432 0.397416 1.092046 0.368370 3.165580 -13.113461 2.060667 8.986043 25.755355 0.000000 0.000000 0.000000 2.565677 -6.676133 3.805068 -7.656111 -15.859801 51.313241 -0.095847 3.233367 7.914905 -0.994205 -6.345446 17.790189 -9.031875 3.333790 4.016957 -2.729216 3.698982 -0.591145 1.947703 1.883919 -3.279402 18.324120 16.470780 -11.141609 -11.552139 21.612826 20.041252 -3.613954 10.052771 11.683964 0.000000 0.000000 0.000000 12.619110 2.854231 -40.041013 24.503539 -35.692190 7.998434 13.146789 -6.299361 21.805179 0.000000 0.000000 0.000000 -7.125000 0.000000 0.000000 -9.855845 7.913462 -8.536199 0.000000 0.000000 0.000000 -4.687832 11.249865 35.353487 -23.177297 -34.281241 -7.238250 -9.245723 4.373716 29.909316 0.000000 0.000000 0.000000 7.125000 0.000000 0.000000 24.569982 58.482362 -8.425626
47.169182 16.915091 -9.212322 533.994396 -9.834167 536.564634 0.000000 0.000000 0.000000 -33.175715 14.713329 4.210887 0.008489 0.594598 1.633902 0.411511 -0.298876 -12.026171 2.531344 9.893381 28.633208 0.000000 0.000000 0.000000 1.574675 -5.219237 -1.041706 -8.495086 -16.471292 54.326605 0.007420 1.675407 0.617069 -0.423261 -4.174451 11.568005 -10.326656 2.846420 4.066070 -2.896614 2.958934 -0.310833 2.552616 1.502277 -3.002407 18.204988 16.590004 -10.998108 -11.365131 21.801277 20.289371 -3.499832 10.147597 11.741614 0.000000 0.000000 0.000000 13.544616 -0.484920 -43.384142 25.151010 -36.357909 8.379272 13.521989 -7.048244 21.053560 0.000000 0.000000 0.000000 -7.125000 0.000000 0.000000 -9.593299 8.624164 -8.164790 0.000000 0.000000 0.000000 -3.976092 12.187376 30.726595 -21.445245 -32.343723 -6.286724 -11.882682 4.256573 30.778956 0.000000 0.000000 0.000000 7.125000 0.000000 0.000000 22.548187 59.870237 -8.430671
47.087341 16.911450 -9.484570 533.686684 -12.907524 536.670696 0.000000 0.000000 0.000000 -33.422643 16.624874 4.562370 0.012013 0.707399 1.943978 0.320761 -1.764829 -10.234670 0.181471 2.122106 5.870906 0.000000 0.000000 0.000000 1.747894 -2.821670 -4.715870 -8.649250 -16.576571 54.868835 -0.104824 0.857633 -5.829623 -0.675101 -5.252797 14.631333 -10.675601 2.405655 4.765661 -2.953231 2.258484 -0.173920 2.720199 1.159616 -3.181249 19.274325 16.837926 -10.835408 -11.623990 22.094673 20.995616 -3.660887 10.313059 12.209886 0.000000 0.000000 0.000000 13.596789 -3.585607 -45.526098 25.333362 -36.542525 8.487690 13.424245 -6.572266 21.351159 0.000000 0.000000 0.000000 -7.125000 0.000000 0.000000 -9.665286 8.336534 -8.283757 0.000000 0.000000 0.000000 -3.026107 13.301365 24.604257 -19.503776 -30.039085 -5.281035 -13.360533 5.925283 30.906016 0.000000 0.000000 0.000000 7.125000 0.000000 0.000000 21.105624 60.329545 -8.102738
